<svg width="48" height="54" viewBox="0 0 48 54" fill="none" xmlns="http://www.w3.org/2000/svg">
<path d="M40.1318 28.536C40.1063 24.1115 42.2232 20.7721 46.508 18.3127C44.1105 15.0697 40.4888 13.2855 35.7067 12.9358C31.1796 12.5983 26.2317 15.4314 24.4208 15.4314C22.508 15.4314 18.1211 13.0564 14.678 13.0564C7.56217 13.1649 0 18.4212 0 29.1147C0 32.2733 0.612115 35.5364 1.83634 38.904C3.46865 43.3284 9.36026 54.1786 15.5069 53.9978C18.7205 53.9254 20.9904 51.8398 25.1732 51.8398C29.2285 51.8398 31.3326 53.9978 34.916 53.9978C41.1137 53.9134 46.4442 44.0518 48 39.6152C39.6854 35.9141 40.1318 28.7651 40.1318 28.536ZM32.9139 8.74043C36.3953 4.83436 36.0765 1.27791 35.9745 0C32.9012 0.168781 29.3433 1.97715 27.3156 4.20746C25.084 6.5945 23.7705 9.54817 24.051 12.8756C27.3794 13.1167 30.4145 11.5012 32.9139 8.74043Z" fill="white"/>
</svg>
