<svg width="44" height="47" viewBox="0 0 44 47" fill="none" xmlns="http://www.w3.org/2000/svg">
<path d="M36.313 44.5706L42.2536 39.0487C42.6747 38.6593 43.0169 38.1887 43.2604 37.6639C43.5039 37.1392 43.6439 36.5706 43.6724 35.9909C43.7308 34.8095 43.3341 33.6768 42.5622 32.8041L36.7809 26.2676C36.402 25.8373 35.9436 25.4881 35.4321 25.2403C34.9205 24.9924 34.3659 24.8506 33.8001 24.8231C32.647 24.7668 31.5401 25.1766 30.6859 25.9698L26.0074 30.3146C23.7627 29.1344 21.7459 27.5475 20.0546 25.6306C18.3544 23.7178 17.0057 21.5055 16.0734 19.1001L20.7519 14.7553C21.1731 14.3659 21.5153 13.8953 21.7588 13.3706C22.0023 12.8458 22.1423 12.2773 22.1708 11.6976C22.2292 10.5162 21.8324 9.38349 21.0606 8.51081L15.2849 1.96905C14.9053 1.5382 14.446 1.18876 13.9335 0.940812C13.421 0.692869 12.8655 0.551323 12.2988 0.524318C11.1456 0.467988 10.0387 0.877793 9.18455 1.67104L3.24986 7.18232C1.8823 8.44712 1.05298 10.2457 0.959875 12.1294C0.940231 12.5269 0.953277 12.9095 0.998476 13.2883C1.81541 20.6847 5.26567 28.1498 10.7037 34.304C16.1366 40.4524 23.0433 44.6973 30.1671 46.2732C32.3434 46.7506 34.6387 46.1151 36.313 44.5706Z" fill="#D3AF37"/>
</svg>
