<svg width="47" height="38" viewBox="0 0 47 38" fill="none" xmlns="http://www.w3.org/2000/svg">
<path d="M0.791901 6.09098L7.7264 6.0002C8.90041 2.79309 12.4005 0.441267 16.5702 0.386684C20.7399 0.3321 24.3004 2.59149 25.558 5.76678L45.4609 5.50624C45.8571 5.50105 46.1849 5.77165 46.1893 6.10756L46.2373 9.7721C46.2417 10.108 45.9211 10.3871 45.5248 10.3923L25.6219 10.6528C24.4479 13.8599 20.9478 16.2118 16.7781 16.2664C12.6084 16.3209 9.04792 14.0615 7.79036 10.8863L0.855862 10.977C0.459606 10.9822 0.131795 10.7116 0.127397 10.3757L0.0794265 6.71117C0.0750291 6.37525 0.395645 6.09617 0.791901 6.09098Z" fill="#D3AF37"/>
<path d="M1.07173 27.4675L20.9746 27.2069C22.1486 23.9998 25.6488 21.648 29.8185 21.5934C33.9882 21.5388 37.5486 23.7982 38.8062 26.9735L45.7407 26.8827C46.137 26.8775 46.4648 27.1481 46.4692 27.484L46.5171 31.1486C46.5215 31.4845 46.2009 31.7636 45.8047 31.7688L38.8702 31.8595C37.6961 35.0667 34.196 37.4185 30.0263 37.4731C25.8566 37.5276 22.2962 35.2683 21.0386 32.093L1.13569 32.3535C0.739436 32.3587 0.411624 32.0881 0.407227 31.7522L0.359256 28.0876C0.354859 27.7517 0.675475 27.4726 1.07173 27.4675Z" fill="#D3AF37"/>
</svg>
