<svg width="668" height="130" viewBox="0 0 668 130" fill="none" xmlns="http://www.w3.org/2000/svg">
<path d="M161.614 97.288H158.734C157.966 96.328 156.974 95.144 155.758 93.736C154.222 91.944 153.006 90.568 152.11 89.608L112.27 45.544H111.31V97.288L108.622 97L105.934 97.288V31.624H109.678L155.278 81.064H156.238V31.624L159.022 31.912L161.614 31.624V97.288ZM304.747 37.384C300.971 37 297.803 36.712 295.243 36.52C292.747 36.328 289.227 36.232 284.683 36.232V97.48L280.459 97.192L276.235 97.48V36.232C271.755 36.232 268.043 36.328 265.099 36.52C262.155 36.712 258.859 37 255.211 37.384L255.499 34.504L255.211 31.624H304.747L304.459 34.504L304.747 37.384ZM359.434 97H324.778V31.624H358.858L358.57 34.408L358.858 37.384C356.618 37 354.09 36.712 351.274 36.52C348.522 36.264 344.618 36.136 339.562 36.136H333.226V60.232H348.49C349.578 60.232 351.114 60.168 353.098 60.04C355.146 59.848 356.33 59.752 356.65 59.752L356.362 62.248L356.65 64.936C355.562 64.936 353.962 64.872 351.85 64.744C349.802 64.552 348.522 64.456 348.01 64.456H333.226V92.488C345.77 92.488 354.506 92.072 359.434 91.24L359.146 94.024L359.434 97ZM417.322 97H382.378V31.624L386.602 31.912L390.826 31.624V92.488C397.034 92.488 402.154 92.392 406.186 92.2C410.218 92.008 413.93 91.688 417.322 91.24L417.034 94.12L417.322 97ZM508.69 37.384C506.194 36.872 503.474 36.552 500.53 36.424C497.65 36.232 493.938 36.136 489.394 36.136H483.058V60.232H498.61L506.482 59.752L506.194 62.248L506.482 64.936L498.034 64.456H483.058V97.288L478.738 97L474.61 97.288V31.624H508.69L508.402 34.504L508.69 37.384ZM566.866 97H532.21V31.624H566.29L566.002 34.408L566.29 37.384C564.05 37 561.522 36.712 558.706 36.52C555.954 36.264 552.05 36.136 546.994 36.136H540.658V60.232H555.922C557.01 60.232 558.546 60.168 560.53 60.04C562.578 59.848 563.762 59.752 564.082 59.752L563.794 62.248L564.082 64.936C562.994 64.936 561.394 64.872 559.282 64.744C557.234 64.552 555.954 64.456 555.442 64.456H540.658V92.488C553.202 92.488 561.938 92.072 566.866 91.24L566.578 94.024L566.866 97Z" fill="#D3AF37"/>
<path d="M436 30.5784C436 30.425 436.091 30.2779 436.252 30.1694C436.413 30.0609 436.632 30 436.86 30C437.088 30 437.307 30.0609 437.469 30.1694C437.63 30.2779 437.721 30.425 437.721 30.5784L437.797 43.2318V45.0359C437.79 45.1395 437.815 45.2429 437.869 45.3399C437.924 45.4368 438.007 45.5254 438.113 45.6001C438.22 45.6748 438.349 45.7341 438.491 45.7745C438.632 45.8148 438.785 45.8353 438.939 45.8347C439.249 45.8284 439.543 45.7397 439.756 45.5881C439.969 45.4364 440.084 45.2342 440.076 45.0256V44.2268L439.994 30.6611C439.994 30.5077 440.085 30.3605 440.246 30.2521C440.407 30.1436 440.626 30.0826 440.854 30.0826C441.083 30.0826 441.301 30.1436 441.463 30.2521C441.624 30.3605 441.715 30.5077 441.715 30.6611L441.797 44.1924V44.9671C441.797 45.1789 441.922 45.3821 442.145 45.5319C442.367 45.6817 442.67 45.7659 442.985 45.7659C443.3 45.7659 443.602 45.6817 443.825 45.5319C444.047 45.3821 444.173 45.1789 444.173 44.9671V43.1629L444.096 30.6163C444.096 30.4629 444.186 30.3158 444.348 30.2073C444.509 30.0988 444.728 30.0379 444.956 30.0379C445.184 30.0379 445.403 30.0988 445.564 30.2073C445.726 30.3158 445.816 30.4629 445.816 30.6163L445.893 43.249C445.892 43.257 445.892 43.2651 445.893 43.2731V45.2047C445.88 45.3126 445.901 45.4211 445.953 45.5236C446.005 45.626 446.088 45.7202 446.196 45.8003C446.304 45.8804 446.436 45.9447 446.583 45.9893C446.729 46.0338 446.888 46.0576 447.049 46.0593C447.21 46.061 447.37 46.0404 447.519 45.9989C447.668 45.9574 447.802 45.8958 447.914 45.8179C448.026 45.7401 448.113 45.6477 448.17 45.5463C448.226 45.445 448.251 45.3369 448.244 45.2288V45.2047V43.2731L448.167 30.6404C448.167 30.487 448.257 30.3399 448.419 30.2314C448.58 30.1229 448.799 30.062 449.027 30.062C449.255 30.062 449.474 30.1229 449.635 30.2314C449.797 30.3399 449.887 30.487 449.887 30.6404L450 48.7235C450 48.7442 450 48.7648 450 48.782C450 48.7992 450 48.9163 450 48.9852V49.2227C450 51.8567 448.003 53.9983 445.499 54.0052H445.427L447.373 97.1539C447.373 97.2469 447.373 97.3433 447.373 97.4397C447.301 98.1251 446.851 98.7676 446.11 99.2411C445.37 99.7147 444.393 99.9852 443.372 99.9994C442.35 100.014 441.357 99.7706 440.588 99.3181C439.82 98.8655 439.33 98.2361 439.216 97.5533V97.5258C439.216 97.5258 439.216 97.4913 439.216 97.4741C439.216 97.4569 439.216 97.3639 439.216 97.3088L440.655 53.9811C438.151 53.9811 436.113 51.8567 436.097 49.2227V48.9886C436.097 48.9094 436.097 48.8302 436.097 48.751C436.094 48.7247 436.094 48.6982 436.097 48.6718L436 30.5784Z" fill="#D3AF37"/>
<path d="M234.768 34.9356C234.987 34.7147 235.059 34.3715 234.949 34.0694C234.84 33.7673 234.57 33.5692 234.27 33.5692H226.426L229.538 30.6875C230.033 31.089 230.59 31.3068 231.117 31.3068C231.569 31.3068 231.997 31.1521 232.345 30.8319C233.251 29.9925 233.202 28.3769 232.234 27.1541C231.8 26.6059 231.238 26.2209 230.652 26.0695C229.989 25.8991 229.348 26.0458 228.889 26.4702C228.429 26.8954 228.197 27.5588 228.252 28.2917C228.282 28.6972 228.405 29.1027 228.593 29.4868L224.184 33.57H187.73C187.43 33.57 187.161 33.768 187.051 34.0702C186.941 34.3715 187.013 34.7155 187.232 34.9364L208.769 56.6272V86.7392L199.938 95.6337C199.719 95.8546 199.647 96.1985 199.757 96.4999C199.867 96.802 200.136 97 200.436 97H221.564C221.864 97 222.133 96.802 222.243 96.4999C222.353 96.1985 222.281 95.8553 222.062 95.6337L213.231 86.7392V56.6264L234.768 34.9356ZM229.838 27.6693C229.914 27.5983 230.017 27.5778 230.111 27.5778C230.193 27.5778 230.268 27.5928 230.311 27.6046C230.596 27.678 230.892 27.8878 231.124 28.1805C231.57 28.7429 231.634 29.4119 231.394 29.6336C231.153 29.8545 230.553 29.6841 230.107 29.1224C229.875 28.8297 229.728 28.481 229.705 28.1655C229.698 28.0606 229.695 27.801 229.838 27.6693ZM232.416 35.1478L227.067 40.5358H219.375C219.323 40.4419 219.26 40.352 219.202 40.2589L224.722 35.1478H232.416ZM218.143 44.9203C217.235 45.7613 215.478 45.228 214.31 43.7528C214.31 43.7528 214.31 43.752 214.309 43.752C214.309 43.752 214.308 43.752 214.308 43.7512C213.705 42.9899 213.338 42.1017 213.275 41.2497C213.219 40.4908 213.415 39.8621 213.829 39.4787C214.116 39.2136 214.494 39.0771 214.927 39.0771C215.12 39.0771 215.323 39.104 215.534 39.1584C216.304 39.3572 217.06 39.8857 217.662 40.647C218.832 42.1214 219.051 44.0778 218.143 44.9203ZM222.479 35.1478L218.256 39.0582C217.548 38.3506 216.725 37.8434 215.872 37.6233C214.719 37.3266 213.658 37.5594 212.88 38.2804C212.279 38.8365 211.921 39.6207 211.831 40.5358H194.933L189.584 35.1478H222.479ZM196.499 42.1127H211.936C212.084 42.8132 212.367 43.5011 212.765 44.1417L211.34 45.4615C211.034 45.7447 210.999 46.2433 211.261 46.5738C211.406 46.7552 211.61 46.8491 211.815 46.8491C211.983 46.8491 212.152 46.7868 212.29 46.659L213.711 45.3431C214.718 46.3466 215.938 46.8885 217.054 46.8885C217.816 46.8885 218.529 46.6393 219.091 46.117C220.08 45.2012 220.363 43.666 219.988 42.1119H225.499L212.214 55.4943H209.786L196.499 42.1127ZM219.71 95.4215H202.29L209.997 87.6598C210.145 87.5107 210.229 87.3016 210.229 87.0831V57.0721H211.771V87.0823C211.771 87.3008 211.855 87.5099 212.003 87.659L219.71 95.4215Z" fill="#D3AF37"/>
<path d="M220.113 95.9033C214.356 95.8565 202.063 95.5103 201.543 95.6226L209.984 87.2005V57.1616L196.089 41.7211H226.736L212.451 57.1616V87.2005L220.113 95.9033Z" fill="#D3AF37"/>
</svg>
