<svg width="668" height="565" viewBox="0 0 668 565" fill="none" xmlns="http://www.w3.org/2000/svg">
<path d="M105.805 370.036C123.097 354.101 140.155 338.45 157.221 322.809C169.837 311.247 182.464 299.697 195.606 287.665C190.801 284.229 186.531 281.192 182.276 278.131C152.891 256.99 133.505 228.841 124.065 193.987C117.554 169.949 116.766 145.53 122.578 121.289C137.238 60.1385 176.295 22.4432 236.542 7.42266C283.237 -4.21906 325.957 6.75143 364.056 35.8758C366.855 38.0159 369.549 39.2148 373.109 39.2094C417.938 39.1416 462.768 39.1511 507.597 39.2398C510.82 39.2462 512.834 38.1072 514.514 35.414C521.213 24.6717 528.054 14.017 534.879 3.35366C535.831 1.86632 536.5 -0.0682757 538.819 0.00185326C542.014 0.0984723 543.242 2.95431 541.243 6.17287C535.794 14.9449 530.214 23.6349 524.713 32.375C523.674 34.0266 522.315 35.5611 522.162 37.5018C523.747 39.7086 525.895 39.1944 527.812 39.2064C535.977 39.2573 544.143 39.2309 552.309 39.2042C554.851 39.1959 557.467 39.0258 558.626 41.9967C559.732 44.835 557.975 46.712 556.259 48.6038C537.013 69.8297 517.735 91.0263 498.564 112.319C491.21 120.486 484.129 128.897 476.885 137.163C469.579 145.5 468.333 155.879 467.79 166.174C466.125 197.799 465.715 229.442 468.877 261.021C471.029 282.514 478.745 290.942 501.895 297.216C505.105 298.086 508.405 298.619 511.657 299.34C514.334 299.933 516.501 301.295 516.275 304.317C516.032 307.578 513.601 308.695 510.627 308.738C507.128 308.789 503.628 308.758 500.128 308.758C472.797 308.764 445.467 308.769 418.136 308.773C416.803 308.774 415.465 308.838 414.137 308.748C411.333 308.558 408.611 307.99 408.473 304.463C408.341 301.093 410.802 299.854 413.601 299.382C420.034 298.298 426.204 296.382 432.331 294.176C444.565 289.771 451.821 281.269 454.156 268.513C455.745 259.832 456.964 251.134 457.284 242.274C458.114 219.286 458.053 196.313 457.318 173.324C456.719 154.605 451.854 137.783 439.111 123.353C423.565 105.748 408.683 87.5572 393.587 69.5591C391.509 67.0824 389.249 66.3069 386.12 67.0012C375.253 69.4121 369.813 75.9259 369.834 87.0837C369.872 107.744 370.027 128.404 370.118 149.065C370.132 152.228 368.479 155.534 371.582 158.366C372.619 159.312 371.432 160.846 370.736 161.989C366.061 169.674 362.069 177.913 356.44 184.819C353.6 188.304 351.868 192.2 349.347 195.713C346.979 199.013 344.193 199.706 340.752 197.538C339.625 196.829 338.538 196.054 337.463 195.266C329.699 189.578 329.865 187.735 335.367 180.009C340.54 172.746 344.505 164.634 349.279 157.07C351.537 153.493 352.689 148.629 358.69 148.689C360.879 148.71 360.236 145.727 360.242 144.013C360.299 125.682 360.763 107.335 360.173 89.0225C359.487 67.7519 373.664 56.9602 392.456 56.5218C405.59 56.2155 418.798 55.3582 431.876 57.2957C439.633 58.4448 445.699 62.8406 450.488 68.9572C452.386 71.3817 453.381 73.9925 450.446 76.4122C447.563 78.7891 445.025 77.5513 443.068 75.1602C437.038 67.7916 429.176 65.261 419.969 65.8783C414.92 66.2168 409.781 65.3351 403.738 66.7074C410.55 74.7473 416.795 82.0398 422.954 89.4041C433.106 101.543 443.253 113.688 453.306 125.909C459.821 133.83 467.244 133.92 473.878 126.361C489.15 108.958 504.598 91.7082 519.948 74.373C521.552 72.5609 523.697 71.0933 524.366 67.8822C517.559 67.8822 510.956 67.5283 504.416 68.0157C500.528 68.3055 500.079 71.515 501.044 74.8595C504.379 86.4186 500.277 92.6357 488.342 94.1311C484.479 94.6151 481.911 98.594 482.964 102.464C485.387 111.372 481.795 117.201 472.7 118.568C470.265 118.934 468.721 119.868 467.58 121.905C466.768 123.356 465.857 124.759 464.897 126.118C463.651 127.881 462.128 129.246 459.917 127.636C457.918 126.181 458.069 124.285 459.251 122.335C459.941 121.195 460.52 119.976 461.301 118.904C463.028 116.537 463.075 114.359 461.957 111.505C458.908 103.722 463.974 96.0846 472.297 95.3187C478.395 94.7575 479.847 92.6354 477.56 86.9655C474.657 79.7684 476.983 74.0358 482.303 69.1059C480.674 67.2619 478.663 67.9643 476.95 67.5561C474.85 67.0558 473.123 66.1504 473.063 63.6935C472.996 60.9257 474.86 59.7887 477.222 59.6806C482.045 59.4595 486.881 59.4357 491.711 59.4344C500.121 59.4322 501.838 58.1343 504.453 49.4935C502.925 48.0797 501.012 48.6029 499.256 48.6027C466.425 48.5974 433.59 48.9392 400.768 48.439C392.234 48.309 384.559 50.5554 376.922 53.1905C372.514 54.7114 370.111 53.8643 366.939 50.87C345.87 30.9785 320.824 18.4297 292.304 14.1799C257.891 9.05193 225.29 15.2699 195.459 33.8619C165.252 52.6883 144.044 78.858 134.117 113.038C116.408 174.011 138.558 237.19 191.8 273.253C203.221 280.989 203.323 280.844 213.58 271.543C219.872 265.837 226.102 260.061 232.462 254.431C237.546 249.93 239.742 244.749 237.594 237.955C233.68 225.575 237.785 215.397 246.69 206.714C263.778 190.052 283.102 176.017 301.134 160.464C303.261 158.63 305.549 157.879 307.729 160.264C310.102 162.86 308.826 165.18 306.826 167.277C294.752 179.933 282.645 192.558 270.599 205.241C268.553 207.394 264.553 209.679 267.75 212.954C271.082 216.366 273.729 212.45 276.076 210.362C289.018 198.851 301.884 187.256 314.773 175.686C316.878 173.797 319.186 172.114 321.731 174.655C324.117 177.037 323.083 179.513 321.105 181.722C309.883 194.255 298.667 206.792 287.438 219.318C286.438 220.434 285.323 221.448 284.324 222.565C282.734 224.343 280.921 226.31 283.141 228.619C285.402 230.97 287.576 229.821 289.609 227.852C300.379 217.421 311.193 207.036 321.987 196.631C322.827 195.822 323.635 194.98 324.462 194.157C325.854 192.77 327.439 191.504 329.049 193.603C330.611 195.638 334.487 197.367 331.822 200.604C317.227 218.337 303.378 236.753 286.486 252.455C278.614 259.773 269.093 262.08 258.643 259.374C251.677 257.57 246.418 259.522 241.865 265.026C235.518 272.698 228.782 280.048 222.09 287.676C224.15 290.137 226.704 290.495 228.985 291.131C266.589 301.605 303.008 298.822 337.359 279.807C369.884 261.802 392.143 234.754 404.194 199.518C412.768 174.448 413.388 148.874 407.97 123.126C406.121 114.338 403.106 105.829 399.338 97.6234C397.987 94.6796 396.553 91.3317 400.703 89.5345C404.673 87.815 406.404 90.809 407.794 93.8552C419.285 119.047 423.035 145.44 419.747 172.841C416.374 200.952 406.016 226.304 388.395 248.461C366.866 275.534 339.377 293.492 305.655 302.006C276.115 309.465 247.217 307.222 218.628 297.676C216.018 296.805 214.449 297.119 212.593 299.238C187.131 328.304 161.57 357.285 136.046 386.298C133.732 388.928 131.461 391.594 128.604 393.665C121.711 398.663 113.43 398.724 107.809 393.836C101.761 388.577 100.303 380.482 104.061 372.893C104.501 372.005 105.067 371.179 105.805 370.036ZM465.965 299.267C470.034 299.267 474.103 299.267 478.172 299.267C478.362 298.843 478.553 298.42 478.743 297.996C470.819 293.113 465.366 286.312 462.566 276.654C459.834 281.412 457.749 285.129 455.581 288.797C453.314 292.636 449.143 294.79 445.91 299.261C452.853 299.261 458.914 299.261 465.965 299.267ZM530.491 59.4607C536.92 59.1221 538.414 53.6077 541.371 49.2503C534.556 48.627 527.991 48.6215 521.425 48.6284C513.658 48.6366 511.149 50.7314 509.475 58.6665C509.876 58.8697 510.297 59.2659 510.725 59.2722C517.015 59.3644 523.306 59.4047 530.491 59.4607ZM117.898 376.732C115.546 376.813 114.082 378.004 114.025 380.361C113.984 382.044 115.105 383.121 116.802 383.335C118.643 383.567 120.144 382.848 120.821 381.102C121.644 378.978 120.624 377.611 117.898 376.732Z" fill="#D3AF37"/>
<path d="M304.948 122.088C290.476 106.561 269.666 102.221 250.772 110.554C232.257 118.719 220.89 137.618 223.003 158.164C224.427 172.006 230.762 183.443 242.367 191.726C244.331 193.128 249.087 193.627 246.219 198.095C243.368 202.538 241.206 202.69 236.293 199.091C201.911 173.904 207.179 120.443 245.818 102.435C279.891 86.5559 318.914 106.814 325.34 143.807C326.399 149.9 326.17 156.094 325.298 162.225C324.87 165.231 323.741 168.1 320.048 167.515C316.559 166.963 315.799 164.006 316.227 160.951C317.916 148.927 315.799 137.749 309.057 127.564C307.864 125.763 306.469 124.096 304.948 122.088Z" fill="#D3AF37"/>
<path d="M184.1 52.1176C196.758 42.1202 210.158 34.2076 225.217 29.2376C228.377 28.1945 231.654 26.8217 233.195 31.0016C234.723 35.1455 231.354 36.5399 228.288 37.6372C209.974 44.1913 193.829 54.1607 180.203 68.0973C170.463 78.0587 162.555 89.2939 156.564 101.901C155.082 105.019 153.877 109.947 149.009 107.73C144.212 105.545 146.87 101.316 148.371 98.1874C156.909 80.3936 168.439 64.8633 184.1 52.1176Z" fill="#D3AF37"/>
<path d="M201.245 60.2556C210.403 53.3584 220.412 48.8708 230.699 44.9129C233.717 43.7517 236.898 43.0667 238.353 46.7629C239.793 50.4219 237.171 52.1856 234.052 53.3186C219.147 58.7331 205.767 66.6634 194.321 77.6972C184.873 86.8047 177.363 97.3089 171.726 109.187C170.316 112.158 169.098 116.815 164.444 114.683C159.739 112.528 161.949 108.586 163.57 105.242C172.314 87.2132 184.572 72.1166 201.245 60.2556Z" fill="#D3AF37"/>
<path d="M339.708 268.867C336.769 270.494 334.216 272.09 331.495 273.314C329.027 274.424 326.496 274.342 324.962 271.641C323.322 268.752 325.05 266.731 327.324 265.448C333.849 261.767 340.196 257.865 346.21 253.363C361.622 241.825 372.734 226.895 381.225 209.826C382.835 206.589 384.192 201.93 388.868 204.168C393.455 206.363 390.951 210.513 389.371 213.729C378.097 236.679 361.909 255.245 339.708 268.867Z" fill="#D3AF37"/>
<path d="M223.928 65.8683C228.385 63.9338 232.508 62.1527 236.67 60.4696C239.378 59.3747 242.126 59.222 243.515 62.328C245.057 65.7753 242.811 67.6949 239.932 68.8098C229.773 72.7441 220.214 77.7124 211.775 84.6788C201.088 93.5006 192.576 104.02 186.783 116.673C186.164 118.025 185.445 119.366 184.56 120.554C183.314 122.225 181.503 122.526 179.624 121.827C177.846 121.166 177.234 119.633 177.153 117.846C177.051 115.579 178.092 113.686 179.055 111.731C188.945 91.6598 203.722 76.3714 223.928 65.8683Z" fill="#D3AF37"/>
<path d="M354.566 221.645C359.473 215.077 363.584 208.445 366.684 201.226C368.027 198.101 370 195.903 373.554 197.532C376.958 199.093 376.359 202.002 375.052 204.795C364.511 227.318 348.674 244.958 326.828 257.046C325.813 257.608 324.78 258.208 323.68 258.531C321.392 259.203 319.371 258.825 318.156 256.488C317.051 254.363 317.713 252.51 319.42 251.161C321.104 249.831 322.987 248.73 324.862 247.667C336.449 241.095 346.271 232.512 354.566 221.645Z" fill="#D3AF37"/>
<path d="M218.18 101.238C211.197 108.275 205.476 115.775 201.654 124.607C200.324 127.678 198.327 129.981 194.765 128.34C191.018 126.613 192.084 123.49 193.409 120.633C203.283 99.34 219.345 84.7398 241.263 76.5103C244.201 75.4072 247.35 74.5382 248.857 78.4139C250.347 82.2464 247.597 83.8227 244.59 84.9403C234.814 88.5731 225.842 93.5049 218.18 101.238Z" fill="#D3AF37"/>
<path d="M280.262 163.262C270.808 170.361 261.298 168.681 257.072 159.487C254.493 153.873 256.136 146.597 260.85 142.767C265.52 138.972 272.811 138.769 278.095 142.287C283.049 145.585 285.214 152.274 283.077 158.177C282.465 159.867 281.388 161.389 280.262 163.262ZM273.545 152.039C272.405 149.97 271.022 148.391 268.403 149.811C266.261 150.972 265.238 152.792 265.918 155.199C266.488 157.218 268.164 158.286 270.112 157.963C272.912 157.499 274.538 155.794 273.545 152.039Z" fill="#D3AF37"/>
<path d="M312.071 236.19C324.442 228.681 335.213 220.006 343.526 208.37C346.314 204.467 352.62 205.324 355.204 200.324C357.212 202.642 355.936 204.116 355.286 205.416C347.124 221.748 334.474 233.695 318.693 242.514C316.66 243.65 314.332 244.772 312.222 242.765C310.27 240.908 310.229 238.673 312.071 236.19Z" fill="#D3AF37"/>
<path d="M161.614 532.288H158.734C157.966 531.328 156.974 530.144 155.758 528.736C154.222 526.944 153.006 525.568 152.11 524.608L112.27 480.544H111.31V532.288L108.622 532L105.934 532.288V466.624H109.678L155.278 516.064H156.238V466.624L159.022 466.912L161.614 466.624V532.288ZM304.747 472.384C300.971 472 297.803 471.712 295.243 471.52C292.747 471.328 289.227 471.232 284.683 471.232V532.48L280.459 532.192L276.235 532.48V471.232C271.755 471.232 268.043 471.328 265.099 471.52C262.155 471.712 258.859 472 255.211 472.384L255.499 469.504L255.211 466.624H304.747L304.459 469.504L304.747 472.384ZM359.434 532H324.778V466.624H358.858L358.57 469.408L358.858 472.384C356.618 472 354.09 471.712 351.274 471.52C348.522 471.264 344.618 471.136 339.562 471.136H333.226V495.232H348.49C349.578 495.232 351.114 495.168 353.098 495.04C355.146 494.848 356.33 494.752 356.65 494.752L356.362 497.248L356.65 499.936C355.562 499.936 353.962 499.872 351.85 499.744C349.802 499.552 348.522 499.456 348.01 499.456H333.226V527.488C345.77 527.488 354.506 527.072 359.434 526.24L359.146 529.024L359.434 532ZM417.322 532H382.378V466.624L386.602 466.912L390.826 466.624V527.488C397.034 527.488 402.154 527.392 406.186 527.2C410.218 527.008 413.93 526.688 417.322 526.24L417.034 529.12L417.322 532ZM508.69 472.384C506.194 471.872 503.474 471.552 500.53 471.424C497.65 471.232 493.938 471.136 489.394 471.136H483.058V495.232H498.61L506.482 494.752L506.194 497.248L506.482 499.936L498.034 499.456H483.058V532.288L478.738 532L474.61 532.288V466.624H508.69L508.402 469.504L508.69 472.384ZM566.866 532H532.21V466.624H566.29L566.002 469.408L566.29 472.384C564.05 472 561.522 471.712 558.706 471.52C555.954 471.264 552.05 471.136 546.994 471.136H540.658V495.232H555.922C557.01 495.232 558.546 495.168 560.53 495.04C562.578 494.848 563.762 494.752 564.082 494.752L563.794 497.248L564.082 499.936C562.994 499.936 561.394 499.872 559.282 499.744C557.234 499.552 555.954 499.456 555.442 499.456H540.658V527.488C553.202 527.488 561.938 527.072 566.866 526.24L566.578 529.024L566.866 532Z" fill="#D3AF37"/>
<path d="M436 465.578C436 465.425 436.091 465.278 436.252 465.169C436.413 465.061 436.632 465 436.86 465C437.088 465 437.307 465.061 437.469 465.169C437.63 465.278 437.721 465.425 437.721 465.578L437.797 478.232V480.036C437.79 480.139 437.815 480.243 437.869 480.34C437.924 480.437 438.007 480.525 438.113 480.6C438.22 480.675 438.349 480.734 438.491 480.774C438.632 480.815 438.785 480.835 438.939 480.835C439.249 480.828 439.543 480.74 439.756 480.588C439.969 480.436 440.084 480.234 440.076 480.026V479.227L439.994 465.661C439.994 465.508 440.085 465.361 440.246 465.252C440.407 465.144 440.626 465.083 440.854 465.083C441.083 465.083 441.301 465.144 441.463 465.252C441.624 465.361 441.715 465.508 441.715 465.661L441.797 479.192V479.967C441.797 480.179 441.922 480.382 442.145 480.532C442.367 480.682 442.67 480.766 442.985 480.766C443.3 480.766 443.602 480.682 443.825 480.532C444.047 480.382 444.173 480.179 444.173 479.967V478.163L444.096 465.616C444.096 465.463 444.186 465.316 444.348 465.207C444.509 465.099 444.728 465.038 444.956 465.038C445.184 465.038 445.403 465.099 445.564 465.207C445.726 465.316 445.816 465.463 445.816 465.616L445.893 478.249C445.892 478.257 445.892 478.265 445.893 478.273V480.205C445.88 480.313 445.901 480.421 445.953 480.524C446.005 480.626 446.088 480.72 446.196 480.8C446.304 480.88 446.436 480.945 446.583 480.989C446.729 481.034 446.888 481.058 447.049 481.059C447.21 481.061 447.37 481.04 447.519 480.999C447.668 480.957 447.802 480.896 447.914 480.818C448.026 480.74 448.113 480.648 448.17 480.546C448.226 480.445 448.251 480.337 448.244 480.229V480.205V478.273L448.167 465.64C448.167 465.487 448.257 465.34 448.419 465.231C448.58 465.123 448.799 465.062 449.027 465.062C449.255 465.062 449.474 465.123 449.635 465.231C449.797 465.34 449.887 465.487 449.887 465.64L450 483.723C450 483.744 450 483.765 450 483.782C450 483.799 450 483.916 450 483.985V484.223C450 486.857 448.003 488.998 445.499 489.005H445.427L447.373 532.154C447.373 532.247 447.373 532.343 447.373 532.44C447.301 533.125 446.851 533.768 446.11 534.241C445.37 534.715 444.393 534.985 443.372 534.999C442.35 535.014 441.357 534.771 440.588 534.318C439.82 533.866 439.33 533.236 439.216 532.553V532.526C439.216 532.526 439.216 532.491 439.216 532.474C439.216 532.457 439.216 532.364 439.216 532.309L440.655 488.981C438.151 488.981 436.113 486.857 436.097 484.223V483.989C436.097 483.909 436.097 483.83 436.097 483.751C436.094 483.725 436.094 483.698 436.097 483.672L436 465.578Z" fill="#D3AF37"/>
<path d="M234.768 469.936C234.987 469.715 235.059 469.372 234.949 469.069C234.84 468.767 234.57 468.569 234.27 468.569H226.426L229.538 465.688C230.033 466.089 230.59 466.307 231.117 466.307C231.569 466.307 231.997 466.152 232.345 465.832C233.251 464.993 233.202 463.377 232.234 462.154C231.8 461.606 231.238 461.221 230.652 461.069C229.989 460.899 229.348 461.046 228.889 461.47C228.429 461.895 228.197 462.559 228.252 463.292C228.282 463.697 228.405 464.103 228.593 464.487L224.184 468.57H187.73C187.43 468.57 187.161 468.768 187.051 469.07C186.941 469.372 187.013 469.715 187.232 469.936L208.769 491.627V521.739L199.938 530.634C199.719 530.855 199.647 531.199 199.757 531.5C199.867 531.802 200.136 532 200.436 532H221.564C221.864 532 222.133 531.802 222.243 531.5C222.353 531.199 222.281 530.855 222.062 530.634L213.231 521.739V491.626L234.768 469.936ZM229.838 462.669C229.914 462.598 230.017 462.578 230.111 462.578C230.193 462.578 230.268 462.593 230.311 462.605C230.596 462.678 230.892 462.888 231.124 463.18C231.57 463.743 231.634 464.412 231.394 464.634C231.153 464.854 230.553 464.684 230.107 464.122C229.875 463.83 229.728 463.481 229.705 463.165C229.698 463.061 229.695 462.801 229.838 462.669ZM232.416 470.148L227.067 475.536H219.375C219.323 475.442 219.26 475.352 219.202 475.259L224.722 470.148H232.416ZM218.143 479.92C217.235 480.761 215.478 480.228 214.31 478.753C214.31 478.753 214.31 478.752 214.309 478.752C214.309 478.752 214.308 478.752 214.308 478.751C213.705 477.99 213.338 477.102 213.275 476.25C213.219 475.491 213.415 474.862 213.829 474.479C214.116 474.214 214.494 474.077 214.927 474.077C215.12 474.077 215.323 474.104 215.534 474.158C216.304 474.357 217.06 474.886 217.662 475.647C218.832 477.121 219.051 479.078 218.143 479.92ZM222.479 470.148L218.256 474.058C217.548 473.351 216.725 472.843 215.872 472.623C214.719 472.327 213.658 472.559 212.88 473.28C212.279 473.837 211.921 474.621 211.831 475.536H194.933L189.584 470.148H222.479ZM196.499 477.113H211.936C212.084 477.813 212.367 478.501 212.765 479.142L211.34 480.461C211.034 480.745 210.999 481.243 211.261 481.574C211.406 481.755 211.61 481.849 211.815 481.849C211.983 481.849 212.152 481.787 212.29 481.659L213.711 480.343C214.718 481.347 215.938 481.889 217.054 481.889C217.816 481.889 218.529 481.639 219.091 481.117C220.08 480.201 220.363 478.666 219.988 477.112H225.499L212.214 490.494H209.786L196.499 477.113ZM219.71 530.421H202.29L209.997 522.66C210.145 522.511 210.229 522.302 210.229 522.083V492.072H211.771V522.082C211.771 522.301 211.855 522.51 212.003 522.659L219.71 530.421Z" fill="#D3AF37"/>
<path d="M220.113 530.903C214.356 530.857 202.063 530.51 201.543 530.623L209.984 522.2V492.162L196.089 476.721H226.736L212.451 492.162V522.2L220.113 530.903Z" fill="#D3AF37"/>
</svg>
