<svg width="770" height="1071" viewBox="0 0 770 1071" fill="none" xmlns="http://www.w3.org/2000/svg">
<g filter="url(#filter0_d_68_1291)">
<path d="M186.489 6.19532C195.727 6.16843 204.69 9.27273 211.866 14.9838C219.042 20.6948 223.989 28.6625 225.873 37.5407C233.382 73.1157 253.188 105.048 281.935 127.927C310.682 150.806 346.601 163.225 383.608 163.079C420.614 162.933 456.431 150.232 484.99 127.127C513.55 104.023 533.095 71.9353 540.314 36.3023C542.125 27.4096 547.007 19.4032 554.136 13.6358C561.265 7.86842 570.203 4.69362 579.44 4.64775L703.823 4.15789C714.46 4.116 724.678 8.22424 732.23 15.5788C739.782 22.9335 744.048 32.932 744.091 43.3749L747.944 988.373C747.987 998.816 743.802 1008.85 736.31 1016.26C728.819 1023.68 718.634 1027.86 707.997 1027.91L583.615 1028.4C574.377 1028.42 565.414 1025.32 558.238 1019.61C551.063 1013.9 546.115 1005.93 544.231 997.05C536.722 961.475 516.916 929.543 488.169 906.664C459.422 883.785 423.503 871.366 386.496 871.512C349.49 871.657 313.673 884.359 285.114 907.463C256.554 930.568 237.009 962.656 229.79 998.289C227.979 1007.18 223.097 1015.19 215.968 1020.95C208.839 1026.72 199.901 1029.9 190.664 1029.94L66.2811 1030.43C55.644 1030.47 45.4256 1026.37 37.874 1019.01C30.3223 1011.66 26.0559 1001.66 26.0133 991.216L22.16 46.2181C22.1174 35.7752 26.3022 25.7434 33.7936 18.3295C41.285 10.9157 51.4696 6.72708 62.1067 6.68518L186.489 6.19532Z" fill="#F2F3ED"/>
<path d="M186.489 6.19532C195.727 6.16843 204.69 9.27273 211.866 14.9838C219.042 20.6948 223.989 28.6625 225.873 37.5407C233.382 73.1157 253.188 105.048 281.935 127.927C310.682 150.806 346.601 163.225 383.608 163.079C420.614 162.933 456.431 150.232 484.99 127.127C513.55 104.023 533.095 71.9353 540.314 36.3023C542.125 27.4096 547.007 19.4032 554.136 13.6358C561.265 7.86842 570.203 4.69362 579.44 4.64775L703.823 4.15789C714.46 4.116 724.678 8.22424 732.23 15.5788C739.782 22.9335 744.048 32.932 744.091 43.3749L747.944 988.373C747.987 998.816 743.802 1008.85 736.31 1016.26C728.819 1023.68 718.634 1027.86 707.997 1027.91L583.615 1028.4C574.377 1028.42 565.414 1025.32 558.238 1019.61C551.063 1013.9 546.115 1005.93 544.231 997.05C536.722 961.475 516.916 929.543 488.169 906.664C459.422 883.785 423.503 871.366 386.496 871.512C349.49 871.657 313.673 884.359 285.114 907.463C256.554 930.568 237.009 962.656 229.79 998.289C227.979 1007.18 223.097 1015.19 215.968 1020.95C208.839 1026.72 199.901 1029.9 190.664 1029.94L66.2811 1030.43C55.644 1030.47 45.4256 1026.37 37.874 1019.01C30.3223 1011.66 26.0559 1001.66 26.0133 991.216L22.16 46.2181C22.1174 35.7752 26.3022 25.7434 33.7936 18.3295C41.285 10.9157 51.4696 6.72708 62.1067 6.68518L186.489 6.19532Z" stroke="url(#paint0_linear_68_1291)" stroke-width="8" stroke-linecap="round" stroke-linejoin="round"/>
</g>
<defs>
<filter id="filter0_d_68_1291" x="0.659668" y="0.157593" width="768.785" height="1070.78" filterUnits="userSpaceOnUse" color-interpolation-filters="sRGB">
<feFlood flood-opacity="0" result="BackgroundImageFix"/>
<feColorMatrix in="SourceAlpha" type="matrix" values="0 0 0 0 0 0 0 0 0 0 0 0 0 0 0 0 0 0 127 0" result="hardAlpha"/>
<feOffset dy="19"/>
<feGaussianBlur stdDeviation="8.75"/>
<feComposite in2="hardAlpha" operator="out"/>
<feColorMatrix type="matrix" values="0 0 0 0 0.285256 0 0 0 0 0.285256 0 0 0 0 0.285256 0 0 0 0.22 0"/>
<feBlend mode="normal" in2="BackgroundImageFix" result="effect1_dropShadow_68_1291"/>
<feBlend mode="normal" in="SourceGraphic" in2="effect1_dropShadow_68_1291" result="shape"/>
</filter>
<linearGradient id="paint0_linear_68_1291" x1="746.017" y1="515.874" x2="24.0871" y2="518.818" gradientUnits="userSpaceOnUse">
<stop stop-color="#6D5A1C"/>
<stop offset="1" stop-color="#D3AF37"/>
</linearGradient>
</defs>
</svg>
